<?xml version="1.0" encoding="UTF-8" standalone="no"?>
<!DOCTYPE svg PUBLIC "-//W3C//DTD SVG 1.1//EN"
 "http://www.w3.org/Graphics/SVG/1.1/DTD/svg11.dtd">
<!-- Generated by graphviz version 2.42.3 (0)
 -->
<!-- Title: G Pages: 1 -->
<svg width="386pt" height="501pt"
 viewBox="0.00 0.00 385.83 501.41" xmlns="http://www.w3.org/2000/svg" xmlns:xlink="http://www.w3.org/1999/xlink">
<g id="graph0" class="graph" transform="scale(1 1) rotate(0) translate(4 497.41)">
<title>G</title>
<polygon fill="white" stroke="transparent" points="-4,4 -4,-497.41 381.83,-497.41 381.83,4 -4,4"/>
<!-- 0 -->
<g id="node1" class="node">
<title>0</title>
<ellipse fill="black" stroke="black" cx="232.36" cy="-491.61" rx="1.8" ry="1.8"/>
</g>
<!-- 2 -->
<g id="node2" class="node">
<title>2</title>
<ellipse fill="none" stroke="black" cx="232.36" cy="-415.34" rx="38.37" ry="37.45"/>
<text text-anchor="middle" x="232.36" y="-426.64" font-family="Times,serif" font-size="14.00">&#45;7</text>
<text text-anchor="middle" x="232.36" y="-411.64" font-family="Times,serif" font-size="14.00">&#45;&#45;&#45;</text>
<text text-anchor="middle" x="232.36" y="-396.64" font-family="Times,serif" font-size="14.00">None</text>
</g>
<!-- 0&#45;&gt;2 -->
<g id="edge1" class="edge">
<title>0&#45;&gt;2</title>
<path fill="none" stroke="black" d="M232.36,-489.78C232.36,-486.74 232.36,-475.75 232.36,-463.16"/>
<polygon fill="black" stroke="black" points="235.86,-462.85 232.36,-452.85 228.86,-462.85 235.86,-462.85"/>
</g>
<!-- 1 -->
<g id="node3" class="node">
<title>1</title>
<ellipse fill="none" stroke="black" cx="199.36" cy="-289.38" rx="38.37" ry="37.45"/>
<text text-anchor="middle" x="199.36" y="-300.68" font-family="Times,serif" font-size="14.00">&#45;6</text>
<text text-anchor="middle" x="199.36" y="-285.68" font-family="Times,serif" font-size="14.00">&#45;&#45;&#45;</text>
<text text-anchor="middle" x="199.36" y="-270.68" font-family="Times,serif" font-size="14.00">None</text>
</g>
<!-- 2&#45;&gt;1 -->
<g id="edge5" class="edge">
<title>2&#45;&gt;1</title>
<path fill="none" stroke="black" d="M222.51,-378.9C220.78,-372.56 219,-366.02 217.36,-359.86 215.3,-352.16 213.14,-343.97 211.07,-336.01"/>
<polygon fill="black" stroke="black" points="214.4,-334.91 208.5,-326.11 207.63,-336.67 214.4,-334.91"/>
<text text-anchor="middle" x="234.36" y="-348.66" font-family="Times,serif" font-size="14.00">True</text>
</g>
<!-- 5 -->
<g id="node4" class="node">
<title>5</title>
<ellipse fill="none" stroke="black" cx="233.36" cy="-37.48" rx="37.45" ry="37.45"/>
<text text-anchor="middle" x="233.36" y="-48.78" font-family="Times,serif" font-size="14.00">1</text>
<text text-anchor="middle" x="233.36" y="-33.78" font-family="Times,serif" font-size="14.00">&#45;&#45;&#45;</text>
<text text-anchor="middle" x="233.36" y="-18.78" font-family="Times,serif" font-size="14.00">False</text>
</g>
<!-- 2&#45;&gt;5 -->
<g id="edge4" class="edge">
<title>2&#45;&gt;5</title>
<path fill="none" stroke="black" d="M246.21,-380.21C248.34,-373.57 250.22,-366.58 251.36,-359.86 268.72,-257.36 261.89,-229.38 251.36,-125.95 249.95,-112.19 247.34,-97.39 244.53,-83.95"/>
<polygon fill="black" stroke="black" points="247.91,-83 242.36,-73.97 241.07,-84.49 247.91,-83"/>
<text text-anchor="middle" x="279.86" y="-222.71" font-family="Times,serif" font-size="14.00">False</text>
</g>
<!-- 1&#45;&gt;5 -->
<g id="edge2" class="edge">
<title>1&#45;&gt;5</title>
<path fill="none" stroke="black" d="M201.46,-251.78C203.66,-218.76 207.73,-168.92 214.36,-125.95 216.47,-112.24 219.42,-97.46 222.36,-84.02"/>
<polygon fill="black" stroke="black" points="225.83,-84.57 224.6,-74.04 219,-83.04 225.83,-84.57"/>
<text text-anchor="middle" x="232.86" y="-159.73" font-family="Times,serif" font-size="14.00">False</text>
</g>
<!-- 4 -->
<g id="node5" class="node">
<title>4</title>
<ellipse fill="none" stroke="black" cx="126.36" cy="-163.43" rx="38.37" ry="37.45"/>
<text text-anchor="middle" x="126.36" y="-174.73" font-family="Times,serif" font-size="14.00">&#45;4</text>
<text text-anchor="middle" x="126.36" y="-159.73" font-family="Times,serif" font-size="14.00">&#45;&#45;&#45;</text>
<text text-anchor="middle" x="126.36" y="-144.73" font-family="Times,serif" font-size="14.00">None</text>
</g>
<!-- 1&#45;&gt;4 -->
<g id="edge3" class="edge">
<title>1&#45;&gt;4</title>
<path fill="none" stroke="black" d="M173.17,-261.85C165.76,-253.4 158.15,-243.69 152.36,-233.91 147.82,-226.26 143.85,-217.68 140.45,-209.24"/>
<polygon fill="black" stroke="black" points="143.69,-207.92 136.87,-199.82 137.15,-210.41 143.69,-207.92"/>
<text text-anchor="middle" x="169.36" y="-222.71" font-family="Times,serif" font-size="14.00">True</text>
</g>
<!-- 5&#45;&gt;5 -->
<g id="edge10" class="edge">
<title>5&#45;&gt;5</title>
<path fill="none" stroke="black" d="M270.43,-43.26C280.84,-43.01 288.83,-41.08 288.83,-37.48 288.83,-35.17 285.55,-33.55 280.46,-32.61"/>
<polygon fill="black" stroke="black" points="280.71,-29.12 270.43,-31.69 280.07,-36.09 280.71,-29.12"/>
<text text-anchor="middle" x="307.33" y="-33.78" font-family="Times,serif" font-size="14.00">False</text>
</g>
<!-- 5&#45;&gt;5 -->
<g id="edge11" class="edge">
<title>5&#45;&gt;5</title>
<path fill="none" stroke="black" d="M269.5,-47.97C296.55,-51.15 325.83,-47.65 325.83,-37.48 325.83,-28.58 303.42,-24.79 279.69,-26.11"/>
<polygon fill="black" stroke="black" points="279.16,-22.64 269.5,-26.99 279.77,-29.61 279.16,-22.64"/>
<text text-anchor="middle" x="342.83" y="-33.78" font-family="Times,serif" font-size="14.00">True</text>
</g>
<!-- 4&#45;&gt;5 -->
<g id="edge8" class="edge">
<title>4&#45;&gt;5</title>
<path fill="none" stroke="black" d="M132.45,-126.41C135.86,-114.7 141.16,-102.32 149.36,-92.95 161.4,-79.19 170.83,-84.61 186.36,-74.95 189.76,-72.84 193.21,-70.52 196.62,-68.12"/>
<polygon fill="black" stroke="black" points="198.95,-70.75 204.95,-62.02 194.81,-65.1 198.95,-70.75"/>
<text text-anchor="middle" x="167.86" y="-96.75" font-family="Times,serif" font-size="14.00">False</text>
</g>
<!-- 3 -->
<g id="node6" class="node">
<title>3</title>
<ellipse fill="none" stroke="black" cx="35.36" cy="-37.48" rx="35.21" ry="37.45"/>
<text text-anchor="middle" x="35.36" y="-48.78" font-family="Times,serif" font-size="14.00">&#45;1</text>
<text text-anchor="middle" x="35.36" y="-33.78" font-family="Times,serif" font-size="14.00">&#45;&#45;&#45;</text>
<text text-anchor="middle" x="35.36" y="-18.78" font-family="Times,serif" font-size="14.00">True</text>
</g>
<!-- 4&#45;&gt;3 -->
<g id="edge9" class="edge">
<title>4&#45;&gt;3</title>
<path fill="none" stroke="black" d="M104.33,-132.42C91.94,-115.55 76.36,-94.33 63.14,-76.33"/>
<polygon fill="black" stroke="black" points="65.61,-73.77 56.87,-67.78 59.96,-77.91 65.61,-73.77"/>
<text text-anchor="middle" x="103.36" y="-96.75" font-family="Times,serif" font-size="14.00">True</text>
</g>
<!-- 3&#45;&gt;3 -->
<g id="edge6" class="edge">
<title>3&#45;&gt;3</title>
<path fill="none" stroke="black" d="M70.51,-43.27C80.76,-43.07 88.71,-41.14 88.71,-37.48 88.71,-35.19 85.61,-33.57 80.77,-32.64"/>
<polygon fill="black" stroke="black" points="80.79,-29.12 70.51,-31.68 80.14,-36.09 80.79,-29.12"/>
<text text-anchor="middle" x="107.21" y="-33.78" font-family="Times,serif" font-size="14.00">False</text>
</g>
<!-- 3&#45;&gt;3 -->
<g id="edge7" class="edge">
<title>3&#45;&gt;3</title>
<path fill="none" stroke="black" d="M69.67,-47.85C96.35,-51.23 125.71,-47.77 125.71,-37.48 125.71,-28.47 103.23,-24.7 79.74,-26.16"/>
<polygon fill="black" stroke="black" points="79.29,-22.68 69.67,-27.1 79.95,-29.65 79.29,-22.68"/>
<text text-anchor="middle" x="142.71" y="-33.78" font-family="Times,serif" font-size="14.00">True</text>
</g>
</g>
</svg>
