<?xml version="1.0" encoding="UTF-8" standalone="no"?>
<!DOCTYPE svg PUBLIC "-//W3C//DTD SVG 1.1//EN"
 "http://www.w3.org/Graphics/SVG/1.1/DTD/svg11.dtd">
<!-- Generated by graphviz version 2.43.0 (0)
 -->
<!-- Title: G Pages: 1 -->
<svg width="390pt" height="501pt"
 viewBox="0.00 0.00 389.54 501.41" xmlns="http://www.w3.org/2000/svg" xmlns:xlink="http://www.w3.org/1999/xlink">
<g id="graph0" class="graph" transform="scale(1 1) rotate(0) translate(4 497.41)">
<title>G</title>
<polygon fill="white" stroke="transparent" points="-4,4 -4,-497.41 385.54,-497.41 385.54,4 -4,4"/>
<!-- 0 -->
<g id="node1" class="node">
<title>0</title>
<ellipse fill="black" stroke="black" cx="28.18" cy="-491.61" rx="1.8" ry="1.8"/>
</g>
<!-- 2 -->
<g id="node2" class="node">
<title>2</title>
<ellipse fill="none" stroke="black" cx="28.18" cy="-415.34" rx="27" ry="37.45"/>
<text text-anchor="middle" x="28.18" y="-426.64" font-family="Times,serif" font-size="14.00">7</text>
<text text-anchor="middle" x="28.18" y="-411.64" font-family="Times,serif" font-size="14.00">&#45;&#45;&#45;</text>
<text text-anchor="middle" x="28.18" y="-396.64" font-family="Times,serif" font-size="14.00">x</text>
</g>
<!-- 0&#45;&gt;2 -->
<g id="edge1" class="edge">
<title>0&#45;&gt;2</title>
<path fill="none" stroke="black" d="M28.18,-489.78C28.18,-486.74 28.18,-475.75 28.18,-463.16"/>
<polygon fill="black" stroke="black" points="31.68,-462.85 28.18,-452.85 24.68,-462.85 31.68,-462.85"/>
</g>
<!-- 5 -->
<g id="node4" class="node">
<title>5</title>
<ellipse fill="none" stroke="black" cx="38.18" cy="-37.48" rx="38.37" ry="37.45"/>
<text text-anchor="middle" x="38.18" y="-48.78" font-family="Times,serif" font-size="14.00">&#45;1</text>
<text text-anchor="middle" x="38.18" y="-33.78" font-family="Times,serif" font-size="14.00">&#45;&#45;&#45;</text>
<text text-anchor="middle" x="38.18" y="-18.78" font-family="Times,serif" font-size="14.00">False</text>
</g>
<!-- 2&#45;&gt;5 -->
<g id="edge4" class="edge">
<title>2&#45;&gt;5</title>
<path fill="none" stroke="black" d="M23.69,-378.32C19.38,-339.1 13.96,-274.54 17.18,-218.91 19.83,-173.2 26.23,-121.31 31.27,-84.95"/>
<polygon fill="black" stroke="black" points="34.8,-85.05 32.72,-74.66 27.86,-84.07 34.8,-85.05"/>
<text text-anchor="middle" x="36.18" y="-222.71" font-family="Times,serif" font-size="14.00">False</text>
</g>
<!-- 4 -->
<g id="node6" class="node">
<title>4</title>
<ellipse fill="none" stroke="black" cx="67.18" cy="-289.38" rx="27" ry="37.45"/>
<text text-anchor="middle" x="67.18" y="-300.68" font-family="Times,serif" font-size="14.00">6</text>
<text text-anchor="middle" x="67.18" y="-285.68" font-family="Times,serif" font-size="14.00">&#45;&#45;&#45;</text>
<text text-anchor="middle" x="67.18" y="-270.68" font-family="Times,serif" font-size="14.00">y</text>
</g>
<!-- 2&#45;&gt;4 -->
<g id="edge5" class="edge">
<title>2&#45;&gt;4</title>
<path fill="none" stroke="black" d="M38.74,-380.79C43.29,-366.32 48.67,-349.22 53.52,-333.8"/>
<polygon fill="black" stroke="black" points="56.96,-334.54 56.62,-323.95 50.28,-332.44 56.96,-334.54"/>
<text text-anchor="middle" x="66.18" y="-348.66" font-family="Times,serif" font-size="14.00">True</text>
</g>
<!-- 1 -->
<g id="node3" class="node">
<title>1</title>
<ellipse fill="none" stroke="black" cx="148.18" cy="-163.43" rx="27" ry="37.45"/>
<text text-anchor="middle" x="148.18" y="-174.73" font-family="Times,serif" font-size="14.00">4</text>
<text text-anchor="middle" x="148.18" y="-159.73" font-family="Times,serif" font-size="14.00">&#45;&#45;&#45;</text>
<text text-anchor="middle" x="148.18" y="-144.73" font-family="Times,serif" font-size="14.00">z</text>
</g>
<!-- 1&#45;&gt;5 -->
<g id="edge2" class="edge">
<title>1&#45;&gt;5</title>
<path fill="none" stroke="black" d="M127.49,-139.12C111.27,-120.83 88.41,-95.08 69.88,-74.2"/>
<polygon fill="black" stroke="black" points="72.27,-71.62 63.02,-66.46 67.04,-76.26 72.27,-71.62"/>
<text text-anchor="middle" x="118.18" y="-96.75" font-family="Times,serif" font-size="14.00">False</text>
</g>
<!-- 3 -->
<g id="node5" class="node">
<title>3</title>
<ellipse fill="none" stroke="black" cx="238.18" cy="-37.48" rx="35.21" ry="37.45"/>
<text text-anchor="middle" x="238.18" y="-48.78" font-family="Times,serif" font-size="14.00">1</text>
<text text-anchor="middle" x="238.18" y="-33.78" font-family="Times,serif" font-size="14.00">&#45;&#45;&#45;</text>
<text text-anchor="middle" x="238.18" y="-18.78" font-family="Times,serif" font-size="14.00">True</text>
</g>
<!-- 1&#45;&gt;3 -->
<g id="edge3" class="edge">
<title>1&#45;&gt;3</title>
<path fill="none" stroke="black" d="M167.05,-136.45C179.77,-118.93 196.75,-95.54 210.93,-76.01"/>
<polygon fill="black" stroke="black" points="213.77,-78.05 216.82,-67.9 208.11,-73.94 213.77,-78.05"/>
<text text-anchor="middle" x="215.18" y="-96.75" font-family="Times,serif" font-size="14.00">True</text>
</g>
<!-- 5&#45;&gt;5 -->
<g id="edge10" class="edge">
<title>5&#45;&gt;5</title>
<path fill="none" stroke="black" d="M76,-43.25C86.41,-42.97 94.37,-41.05 94.37,-37.48 94.37,-35.19 91.1,-33.58 86.02,-32.64"/>
<polygon fill="black" stroke="black" points="86.28,-29.15 76,-31.7 85.63,-36.12 86.28,-29.15"/>
<text text-anchor="middle" x="113.37" y="-33.78" font-family="Times,serif" font-size="14.00">False</text>
</g>
<!-- 5&#45;&gt;5 -->
<g id="edge11" class="edge">
<title>5&#45;&gt;5</title>
<path fill="none" stroke="black" d="M74.9,-47.97C102.46,-51.15 132.37,-47.65 132.37,-37.48 132.37,-28.54 109.26,-24.75 84.96,-26.13"/>
<polygon fill="black" stroke="black" points="84.57,-22.65 74.9,-26.99 85.16,-29.62 84.57,-22.65"/>
<text text-anchor="middle" x="149.37" y="-33.78" font-family="Times,serif" font-size="14.00">True</text>
</g>
<!-- 3&#45;&gt;3 -->
<g id="edge6" class="edge">
<title>3&#45;&gt;3</title>
<path fill="none" stroke="black" d="M273.33,-43.27C283.59,-43.07 291.54,-41.14 291.54,-37.48 291.54,-35.19 288.43,-33.57 283.6,-32.64"/>
<polygon fill="black" stroke="black" points="283.61,-29.12 273.33,-31.68 282.97,-36.09 283.61,-29.12"/>
<text text-anchor="middle" x="310.54" y="-33.78" font-family="Times,serif" font-size="14.00">False</text>
</g>
<!-- 3&#45;&gt;3 -->
<g id="edge7" class="edge">
<title>3&#45;&gt;3</title>
<path fill="none" stroke="black" d="M272.28,-47.79C299.39,-51.27 329.54,-47.83 329.54,-37.48 329.54,-28.42 306.46,-24.65 282.52,-26.18"/>
<polygon fill="black" stroke="black" points="281.9,-22.73 272.28,-27.16 282.57,-29.7 281.9,-22.73"/>
<text text-anchor="middle" x="346.54" y="-33.78" font-family="Times,serif" font-size="14.00">True</text>
</g>
<!-- 4&#45;&gt;1 -->
<g id="edge9" class="edge">
<title>4&#45;&gt;1</title>
<path fill="none" stroke="black" d="M85.16,-260.87C96.8,-243.06 112.08,-219.68 124.68,-200.4"/>
<polygon fill="black" stroke="black" points="127.72,-202.15 130.26,-191.86 121.86,-198.32 127.72,-202.15"/>
<text text-anchor="middle" x="129.18" y="-222.71" font-family="Times,serif" font-size="14.00">True</text>
</g>
<!-- 4&#45;&gt;5 -->
<g id="edge8" class="edge">
<title>4&#45;&gt;5</title>
<path fill="none" stroke="black" d="M63,-252.31C57.88,-208.24 49.22,-133.57 43.6,-85.15"/>
<polygon fill="black" stroke="black" points="47.04,-84.47 42.42,-74.94 40.09,-85.28 47.04,-84.47"/>
<text text-anchor="middle" x="75.18" y="-159.73" font-family="Times,serif" font-size="14.00">False</text>
</g>
</g>
</svg>
