<?xml version="1.0" encoding="UTF-8" standalone="no"?>
<!DOCTYPE svg PUBLIC "-//W3C//DTD SVG 1.1//EN"
 "http://www.w3.org/Graphics/SVG/1.1/DTD/svg11.dtd">
<!-- Generated by graphviz version 2.42.3 (0)
 -->
<!-- Title: G Pages: 1 -->
<svg width="616pt" height="501pt"
 viewBox="0.00 0.00 616.09 501.41" xmlns="http://www.w3.org/2000/svg" xmlns:xlink="http://www.w3.org/1999/xlink">
<g id="graph0" class="graph" transform="scale(1 1) rotate(0) translate(4 497.41)">
<title>G</title>
<polygon fill="white" stroke="transparent" points="-4,4 -4,-497.41 612.09,-497.41 612.09,4 -4,4"/>
<!-- 0 -->
<g id="node1" class="node">
<title>0</title>
<ellipse fill="black" stroke="black" cx="337.46" cy="-491.61" rx="1.8" ry="1.8"/>
</g>
<!-- 7 -->
<g id="node2" class="node">
<title>7</title>
<ellipse fill="none" stroke="black" cx="337.46" cy="-415.34" rx="95.42" ry="37.45"/>
<text text-anchor="middle" x="337.46" y="-426.64" font-family="Times,serif" font-size="14.00">(ref=&#45;7, time=3)</text>
<text text-anchor="middle" x="337.46" y="-411.64" font-family="Times,serif" font-size="14.00">&#45;&#45;&#45;</text>
<text text-anchor="middle" x="337.46" y="-396.64" font-family="Times,serif" font-size="14.00">None</text>
</g>
<!-- 0&#45;&gt;7 -->
<g id="edge1" class="edge">
<title>0&#45;&gt;7</title>
<path fill="none" stroke="black" d="M337.46,-489.78C337.46,-486.74 337.46,-475.75 337.46,-463.16"/>
<polygon fill="black" stroke="black" points="340.96,-462.85 337.46,-452.85 333.96,-462.85 340.96,-462.85"/>
</g>
<!-- 2 -->
<g id="node4" class="node">
<title>2</title>
<ellipse fill="none" stroke="black" cx="235.46" cy="-289.38" rx="95.42" ry="37.45"/>
<text text-anchor="middle" x="235.46" y="-300.68" font-family="Times,serif" font-size="14.00">(ref=&#45;6, time=2)</text>
<text text-anchor="middle" x="235.46" y="-285.68" font-family="Times,serif" font-size="14.00">&#45;&#45;&#45;</text>
<text text-anchor="middle" x="235.46" y="-270.68" font-family="Times,serif" font-size="14.00">None</text>
</g>
<!-- 7&#45;&gt;2 -->
<g id="edge15" class="edge">
<title>7&#45;&gt;2</title>
<path fill="none" stroke="black" d="M308.78,-379.48C296.93,-365.09 283.09,-348.27 270.65,-333.14"/>
<polygon fill="black" stroke="black" points="273.34,-330.91 264.28,-325.41 267.93,-335.35 273.34,-330.91"/>
<text text-anchor="middle" x="310.46" y="-348.66" font-family="Times,serif" font-size="14.00">True</text>
</g>
<!-- 4 -->
<g id="node7" class="node">
<title>4</title>
<ellipse fill="none" stroke="black" cx="441.46" cy="-289.38" rx="92.76" ry="37.45"/>
<text text-anchor="middle" x="441.46" y="-300.68" font-family="Times,serif" font-size="14.00">(ref=1, time=2)</text>
<text text-anchor="middle" x="441.46" y="-285.68" font-family="Times,serif" font-size="14.00">&#45;&#45;&#45;</text>
<text text-anchor="middle" x="441.46" y="-270.68" font-family="Times,serif" font-size="14.00">None</text>
</g>
<!-- 7&#45;&gt;4 -->
<g id="edge14" class="edge">
<title>7&#45;&gt;4</title>
<path fill="none" stroke="black" d="M366.71,-379.48C378.88,-364.97 393.13,-347.98 405.91,-332.76"/>
<polygon fill="black" stroke="black" points="408.69,-334.89 412.43,-324.98 403.32,-330.39 408.69,-334.89"/>
<text text-anchor="middle" x="413.96" y="-348.66" font-family="Times,serif" font-size="14.00">False</text>
</g>
<!-- 1 -->
<g id="node3" class="node">
<title>1</title>
<ellipse fill="none" stroke="black" cx="408.46" cy="-37.48" rx="92.76" ry="37.45"/>
<text text-anchor="middle" x="408.46" y="-48.78" font-family="Times,serif" font-size="14.00">(ref=1, time=0)</text>
<text text-anchor="middle" x="408.46" y="-33.78" font-family="Times,serif" font-size="14.00">&#45;&#45;&#45;</text>
<text text-anchor="middle" x="408.46" y="-18.78" font-family="Times,serif" font-size="14.00">False</text>
</g>
<!-- 1&#45;&gt;1 -->
<g id="edge2" class="edge">
<title>1&#45;&gt;1</title>
<path fill="none" stroke="black" d="M500.44,-42.51C511.71,-41.61 519.09,-39.93 519.09,-37.48 519.09,-35.87 515.91,-34.59 510.54,-33.65"/>
<polygon fill="black" stroke="black" points="510.79,-30.16 500.44,-32.45 509.96,-37.11 510.79,-30.16"/>
<text text-anchor="middle" x="537.59" y="-33.78" font-family="Times,serif" font-size="14.00">False</text>
</g>
<!-- 1&#45;&gt;1 -->
<g id="edge3" class="edge">
<title>1&#45;&gt;1</title>
<path fill="none" stroke="black" d="M496.87,-49.1C529.08,-49.22 556.09,-45.35 556.09,-37.48 556.09,-30.47 534.66,-26.63 507.22,-25.96"/>
<polygon fill="black" stroke="black" points="506.91,-22.45 496.87,-25.85 506.84,-29.45 506.91,-22.45"/>
<text text-anchor="middle" x="573.09" y="-33.78" font-family="Times,serif" font-size="14.00">True</text>
</g>
<!-- 3 -->
<g id="node5" class="node">
<title>3</title>
<ellipse fill="none" stroke="black" cx="411.46" cy="-163.43" rx="92.76" ry="37.45"/>
<text text-anchor="middle" x="411.46" y="-174.73" font-family="Times,serif" font-size="14.00">(ref=1, time=1)</text>
<text text-anchor="middle" x="411.46" y="-159.73" font-family="Times,serif" font-size="14.00">&#45;&#45;&#45;</text>
<text text-anchor="middle" x="411.46" y="-144.73" font-family="Times,serif" font-size="14.00">None</text>
</g>
<!-- 2&#45;&gt;3 -->
<g id="edge4" class="edge">
<title>2&#45;&gt;3</title>
<path fill="none" stroke="black" d="M281.24,-256.14C304.66,-239.65 333.3,-219.48 357.75,-202.26"/>
<polygon fill="black" stroke="black" points="360.05,-204.92 366.21,-196.3 356.02,-199.19 360.05,-204.92"/>
<text text-anchor="middle" x="352.96" y="-222.71" font-family="Times,serif" font-size="14.00">False</text>
</g>
<!-- 5 -->
<g id="node6" class="node">
<title>5</title>
<ellipse fill="none" stroke="black" cx="205.46" cy="-163.43" rx="95.42" ry="37.45"/>
<text text-anchor="middle" x="205.46" y="-174.73" font-family="Times,serif" font-size="14.00">(ref=&#45;4, time=1)</text>
<text text-anchor="middle" x="205.46" y="-159.73" font-family="Times,serif" font-size="14.00">&#45;&#45;&#45;</text>
<text text-anchor="middle" x="205.46" y="-144.73" font-family="Times,serif" font-size="14.00">None</text>
</g>
<!-- 2&#45;&gt;5 -->
<g id="edge5" class="edge">
<title>2&#45;&gt;5</title>
<path fill="none" stroke="black" d="M226.62,-251.86C223.54,-239.12 220.03,-224.63 216.77,-211.17"/>
<polygon fill="black" stroke="black" points="220.09,-210.01 214.34,-201.12 213.29,-211.66 220.09,-210.01"/>
<text text-anchor="middle" x="239.46" y="-222.71" font-family="Times,serif" font-size="14.00">True</text>
</g>
<!-- 3&#45;&gt;1 -->
<g id="edge6" class="edge">
<title>3&#45;&gt;1</title>
<path fill="none" stroke="black" d="M387.1,-127C383.95,-120.88 381.22,-114.41 379.46,-107.95 377.26,-99.88 377.98,-91.51 380.28,-83.48"/>
<polygon fill="black" stroke="black" points="383.64,-84.51 383.8,-73.91 377.07,-82.09 383.64,-84.51"/>
<text text-anchor="middle" x="397.96" y="-96.75" font-family="Times,serif" font-size="14.00">False</text>
</g>
<!-- 3&#45;&gt;1 -->
<g id="edge7" class="edge">
<title>3&#45;&gt;1</title>
<path fill="none" stroke="black" d="M416.09,-125.65C416.89,-115.09 417.23,-103.57 416.46,-92.95 416.27,-90.41 416.04,-87.8 415.77,-85.18"/>
<polygon fill="black" stroke="black" points="419.22,-84.55 414.57,-75.03 412.27,-85.37 419.22,-84.55"/>
<text text-anchor="middle" x="433.46" y="-96.75" font-family="Times,serif" font-size="14.00">True</text>
</g>
<!-- 5&#45;&gt;1 -->
<g id="edge10" class="edge">
<title>5&#45;&gt;1</title>
<path fill="none" stroke="black" d="M256.16,-131.47C284.59,-114.11 320.19,-92.38 349.82,-74.28"/>
<polygon fill="black" stroke="black" points="351.69,-77.24 358.4,-69.04 348.05,-71.27 351.69,-77.24"/>
<text text-anchor="middle" x="337.96" y="-96.75" font-family="Times,serif" font-size="14.00">False</text>
</g>
<!-- 6 -->
<g id="node8" class="node">
<title>6</title>
<ellipse fill="none" stroke="black" cx="95.46" cy="-37.48" rx="95.42" ry="37.45"/>
<text text-anchor="middle" x="95.46" y="-48.78" font-family="Times,serif" font-size="14.00">(ref=&#45;1, time=0)</text>
<text text-anchor="middle" x="95.46" y="-33.78" font-family="Times,serif" font-size="14.00">&#45;&#45;&#45;</text>
<text text-anchor="middle" x="95.46" y="-18.78" font-family="Times,serif" font-size="14.00">True</text>
</g>
<!-- 5&#45;&gt;6 -->
<g id="edge11" class="edge">
<title>5&#45;&gt;6</title>
<path fill="none" stroke="black" d="M174.82,-127.9C161.93,-113.38 146.82,-96.35 133.25,-81.06"/>
<polygon fill="black" stroke="black" points="135.57,-78.41 126.32,-73.25 130.34,-83.05 135.57,-78.41"/>
<text text-anchor="middle" x="174.46" y="-96.75" font-family="Times,serif" font-size="14.00">True</text>
</g>
<!-- 4&#45;&gt;3 -->
<g id="edge8" class="edge">
<title>4&#45;&gt;3</title>
<path fill="none" stroke="black" d="M397.72,-256.21C391.51,-249.57 386.04,-242.08 382.46,-233.91 378.96,-225.9 379.26,-217.34 381.62,-209.06"/>
<polygon fill="black" stroke="black" points="384.97,-210.11 385.23,-199.52 378.42,-207.63 384.97,-210.11"/>
<text text-anchor="middle" x="400.96" y="-222.71" font-family="Times,serif" font-size="14.00">False</text>
</g>
<!-- 4&#45;&gt;3 -->
<g id="edge9" class="edge">
<title>4&#45;&gt;3</title>
<path fill="none" stroke="black" d="M432.62,-251.86C429.54,-239.12 426.03,-224.63 422.77,-211.17"/>
<polygon fill="black" stroke="black" points="426.09,-210.01 420.34,-201.12 419.29,-211.66 426.09,-210.01"/>
<text text-anchor="middle" x="444.46" y="-222.71" font-family="Times,serif" font-size="14.00">True</text>
</g>
<!-- 6&#45;&gt;6 -->
<g id="edge12" class="edge">
<title>6&#45;&gt;6</title>
<path fill="none" stroke="black" d="M190.22,-42.47C201.53,-41.56 208.92,-39.9 208.92,-37.48 208.92,-35.89 205.74,-34.62 200.35,-33.69"/>
<polygon fill="black" stroke="black" points="200.56,-30.19 190.22,-32.48 199.74,-37.14 200.56,-30.19"/>
<text text-anchor="middle" x="227.42" y="-33.78" font-family="Times,serif" font-size="14.00">False</text>
</g>
<!-- 6&#45;&gt;6 -->
<g id="edge13" class="edge">
<title>6&#45;&gt;6</title>
<path fill="none" stroke="black" d="M186.37,-49.1C218.84,-49.16 245.92,-45.29 245.92,-37.48 245.92,-30.49 224.25,-26.65 196.44,-25.96"/>
<polygon fill="black" stroke="black" points="196.41,-22.46 186.37,-25.85 196.33,-29.46 196.41,-22.46"/>
<text text-anchor="middle" x="262.92" y="-33.78" font-family="Times,serif" font-size="14.00">True</text>
</g>
</g>
</svg>
