<?xml version="1.0" encoding="UTF-8" standalone="no"?>
<!DOCTYPE svg PUBLIC "-//W3C//DTD SVG 1.1//EN"
 "http://www.w3.org/Graphics/SVG/1.1/DTD/svg11.dtd">
<!-- Generated by graphviz version 2.43.0 (0)
 -->
<!-- Title: G Pages: 1 -->
<svg width="641pt" height="501pt"
 viewBox="0.00 0.00 641.09 501.41" xmlns="http://www.w3.org/2000/svg" xmlns:xlink="http://www.w3.org/1999/xlink">
<g id="graph0" class="graph" transform="scale(1 1) rotate(0) translate(4 497.41)">
<title>G</title>
<polygon fill="white" stroke="transparent" points="-4,4 -4,-497.41 637.09,-497.41 637.09,4 -4,4"/>
<!-- 0 -->
<g id="node1" class="node">
<title>0</title>
<ellipse fill="black" stroke="black" cx="197.46" cy="-491.61" rx="1.8" ry="1.8"/>
</g>
<!-- 7 -->
<g id="node2" class="node">
<title>7</title>
<ellipse fill="none" stroke="black" cx="197.46" cy="-415.34" rx="92.76" ry="37.45"/>
<text text-anchor="middle" x="197.46" y="-426.64" font-family="Times,serif" font-size="14.00">(ref=7, debt=0)</text>
<text text-anchor="middle" x="197.46" y="-411.64" font-family="Times,serif" font-size="14.00">&#45;&#45;&#45;</text>
<text text-anchor="middle" x="197.46" y="-396.64" font-family="Times,serif" font-size="14.00">(0, &#39;x&#39;)</text>
</g>
<!-- 0&#45;&gt;7 -->
<g id="edge1" class="edge">
<title>0&#45;&gt;7</title>
<path fill="none" stroke="black" d="M197.46,-489.78C197.46,-486.74 197.46,-475.75 197.46,-463.16"/>
<polygon fill="black" stroke="black" points="200.96,-462.85 197.46,-452.85 193.96,-462.85 200.96,-462.85"/>
</g>
<!-- 2 -->
<g id="node4" class="node">
<title>2</title>
<ellipse fill="none" stroke="black" cx="95.46" cy="-289.38" rx="95.42" ry="37.45"/>
<text text-anchor="middle" x="95.46" y="-300.68" font-family="Times,serif" font-size="14.00">(ref=&#45;1, debt=2)</text>
<text text-anchor="middle" x="95.46" y="-285.68" font-family="Times,serif" font-size="14.00">&#45;&#45;&#45;</text>
<text text-anchor="middle" x="95.46" y="-270.68" font-family="Times,serif" font-size="14.00">(2, False)</text>
</g>
<!-- 7&#45;&gt;2 -->
<g id="edge14" class="edge">
<title>7&#45;&gt;2</title>
<path fill="none" stroke="black" d="M168.78,-379.48C156.93,-365.09 143.09,-348.27 130.65,-333.14"/>
<polygon fill="black" stroke="black" points="133.34,-330.91 124.28,-325.41 127.93,-335.35 133.34,-330.91"/>
<text text-anchor="middle" x="171.46" y="-348.66" font-family="Times,serif" font-size="14.00">False</text>
</g>
<!-- 4 -->
<g id="node7" class="node">
<title>4</title>
<ellipse fill="none" stroke="black" cx="301.46" cy="-289.38" rx="92.76" ry="37.45"/>
<text text-anchor="middle" x="301.46" y="-300.68" font-family="Times,serif" font-size="14.00">(ref=6, debt=0)</text>
<text text-anchor="middle" x="301.46" y="-285.68" font-family="Times,serif" font-size="14.00">&#45;&#45;&#45;</text>
<text text-anchor="middle" x="301.46" y="-270.68" font-family="Times,serif" font-size="14.00">(0, &#39;y&#39;)</text>
</g>
<!-- 7&#45;&gt;4 -->
<g id="edge15" class="edge">
<title>7&#45;&gt;4</title>
<path fill="none" stroke="black" d="M226.71,-379.48C238.88,-364.97 253.13,-347.98 265.91,-332.76"/>
<polygon fill="black" stroke="black" points="268.69,-334.89 272.43,-324.98 263.32,-330.39 268.69,-334.89"/>
<text text-anchor="middle" x="272.46" y="-348.66" font-family="Times,serif" font-size="14.00">True</text>
</g>
<!-- 1 -->
<g id="node3" class="node">
<title>1</title>
<ellipse fill="none" stroke="black" cx="118.46" cy="-37.48" rx="95.42" ry="37.45"/>
<text text-anchor="middle" x="118.46" y="-48.78" font-family="Times,serif" font-size="14.00">(ref=&#45;1, debt=0)</text>
<text text-anchor="middle" x="118.46" y="-33.78" font-family="Times,serif" font-size="14.00">&#45;&#45;&#45;</text>
<text text-anchor="middle" x="118.46" y="-18.78" font-family="Times,serif" font-size="14.00">(0, False)</text>
</g>
<!-- 1&#45;&gt;1 -->
<g id="edge2" class="edge">
<title>1&#45;&gt;1</title>
<path fill="none" stroke="black" d="M213.22,-42.47C224.53,-41.56 231.92,-39.9 231.92,-37.48 231.92,-35.89 228.74,-34.62 223.35,-33.69"/>
<polygon fill="black" stroke="black" points="223.56,-30.19 213.22,-32.48 222.74,-37.14 223.56,-30.19"/>
<text text-anchor="middle" x="250.92" y="-33.78" font-family="Times,serif" font-size="14.00">False</text>
</g>
<!-- 1&#45;&gt;1 -->
<g id="edge3" class="edge">
<title>1&#45;&gt;1</title>
<path fill="none" stroke="black" d="M209.48,-49.1C242.37,-49.19 269.92,-45.32 269.92,-37.48 269.92,-30.46 247.88,-26.62 219.68,-25.96"/>
<polygon fill="black" stroke="black" points="219.52,-22.45 209.48,-25.85 219.44,-29.45 219.52,-22.45"/>
<text text-anchor="middle" x="286.92" y="-33.78" font-family="Times,serif" font-size="14.00">True</text>
</g>
<!-- 5 -->
<g id="node5" class="node">
<title>5</title>
<ellipse fill="none" stroke="black" cx="118.46" cy="-163.43" rx="95.42" ry="37.45"/>
<text text-anchor="middle" x="118.46" y="-174.73" font-family="Times,serif" font-size="14.00">(ref=&#45;1, debt=1)</text>
<text text-anchor="middle" x="118.46" y="-159.73" font-family="Times,serif" font-size="14.00">&#45;&#45;&#45;</text>
<text text-anchor="middle" x="118.46" y="-144.73" font-family="Times,serif" font-size="14.00">(1, False)</text>
</g>
<!-- 2&#45;&gt;5 -->
<g id="edge4" class="edge">
<title>2&#45;&gt;5</title>
<path fill="none" stroke="black" d="M69.5,-253.12C64.47,-242.18 61.99,-230.07 66.46,-218.91 68.25,-214.44 70.6,-210.13 73.31,-206.03"/>
<polygon fill="black" stroke="black" points="76.19,-208.02 79.33,-197.9 70.56,-203.86 76.19,-208.02"/>
<text text-anchor="middle" x="85.46" y="-222.71" font-family="Times,serif" font-size="14.00">False</text>
</g>
<!-- 2&#45;&gt;5 -->
<g id="edge5" class="edge">
<title>2&#45;&gt;5</title>
<path fill="none" stroke="black" d="M102.24,-251.86C104.6,-239.12 107.29,-224.63 109.79,-211.17"/>
<polygon fill="black" stroke="black" points="113.27,-211.59 111.65,-201.12 106.39,-210.31 113.27,-211.59"/>
<text text-anchor="middle" x="125.46" y="-222.71" font-family="Times,serif" font-size="14.00">True</text>
</g>
<!-- 5&#45;&gt;1 -->
<g id="edge10" class="edge">
<title>5&#45;&gt;1</title>
<path fill="none" stroke="black" d="M96.37,-126.8C93.52,-120.71 91.04,-114.29 89.46,-107.95 87.43,-99.84 88.23,-91.44 90.57,-83.41"/>
<polygon fill="black" stroke="black" points="93.93,-84.43 94.1,-73.83 87.36,-82.01 93.93,-84.43"/>
<text text-anchor="middle" x="108.46" y="-96.75" font-family="Times,serif" font-size="14.00">False</text>
</g>
<!-- 5&#45;&gt;1 -->
<g id="edge11" class="edge">
<title>5&#45;&gt;1</title>
<path fill="none" stroke="black" d="M126.13,-125.72C127.54,-115.16 128.33,-103.62 127.46,-92.95 127.25,-90.4 126.99,-87.79 126.68,-85.16"/>
<polygon fill="black" stroke="black" points="130.12,-84.46 125.34,-75 123.18,-85.38 130.12,-84.46"/>
<text text-anchor="middle" x="144.46" y="-96.75" font-family="Times,serif" font-size="14.00">True</text>
</g>
<!-- 3 -->
<g id="node6" class="node">
<title>3</title>
<ellipse fill="none" stroke="black" cx="432.46" cy="-37.48" rx="92.76" ry="37.45"/>
<text text-anchor="middle" x="432.46" y="-48.78" font-family="Times,serif" font-size="14.00">(ref=1, debt=0)</text>
<text text-anchor="middle" x="432.46" y="-33.78" font-family="Times,serif" font-size="14.00">&#45;&#45;&#45;</text>
<text text-anchor="middle" x="432.46" y="-18.78" font-family="Times,serif" font-size="14.00">(0, True)</text>
</g>
<!-- 3&#45;&gt;3 -->
<g id="edge6" class="edge">
<title>3&#45;&gt;3</title>
<path fill="none" stroke="black" d="M524.44,-42.51C535.71,-41.61 543.09,-39.93 543.09,-37.48 543.09,-35.87 539.91,-34.59 534.54,-33.65"/>
<polygon fill="black" stroke="black" points="534.79,-30.16 524.44,-32.45 533.96,-37.11 534.79,-30.16"/>
<text text-anchor="middle" x="562.09" y="-33.78" font-family="Times,serif" font-size="14.00">False</text>
</g>
<!-- 3&#45;&gt;3 -->
<g id="edge7" class="edge">
<title>3&#45;&gt;3</title>
<path fill="none" stroke="black" d="M520.61,-49.1C553.4,-49.28 581.09,-45.41 581.09,-37.48 581.09,-30.38 558.93,-26.53 530.79,-25.93"/>
<polygon fill="black" stroke="black" points="530.64,-22.43 520.61,-25.86 530.58,-29.43 530.64,-22.43"/>
<text text-anchor="middle" x="598.09" y="-33.78" font-family="Times,serif" font-size="14.00">True</text>
</g>
<!-- 4&#45;&gt;5 -->
<g id="edge8" class="edge">
<title>4&#45;&gt;5</title>
<path fill="none" stroke="black" d="M254.81,-256.78C230.17,-240.09 199.76,-219.5 173.92,-201.99"/>
<polygon fill="black" stroke="black" points="175.59,-198.9 165.34,-196.19 171.66,-204.69 175.59,-198.9"/>
<text text-anchor="middle" x="239.46" y="-222.71" font-family="Times,serif" font-size="14.00">False</text>
</g>
<!-- 6 -->
<g id="node8" class="node">
<title>6</title>
<ellipse fill="none" stroke="black" cx="324.46" cy="-163.43" rx="92.76" ry="37.45"/>
<text text-anchor="middle" x="324.46" y="-174.73" font-family="Times,serif" font-size="14.00">(ref=4, debt=0)</text>
<text text-anchor="middle" x="324.46" y="-159.73" font-family="Times,serif" font-size="14.00">&#45;&#45;&#45;</text>
<text text-anchor="middle" x="324.46" y="-144.73" font-family="Times,serif" font-size="14.00">(0, &#39;z&#39;)</text>
</g>
<!-- 4&#45;&gt;6 -->
<g id="edge9" class="edge">
<title>4&#45;&gt;6</title>
<path fill="none" stroke="black" d="M308.24,-251.86C310.6,-239.12 313.29,-224.63 315.79,-211.17"/>
<polygon fill="black" stroke="black" points="319.27,-211.59 317.65,-201.12 312.39,-210.31 319.27,-211.59"/>
<text text-anchor="middle" x="330.46" y="-222.71" font-family="Times,serif" font-size="14.00">True</text>
</g>
<!-- 6&#45;&gt;1 -->
<g id="edge12" class="edge">
<title>6&#45;&gt;1</title>
<path fill="none" stroke="black" d="M273.8,-131.95C244.96,-114.59 208.66,-92.75 178.41,-74.55"/>
<polygon fill="black" stroke="black" points="180.01,-71.43 169.64,-69.27 176.4,-77.43 180.01,-71.43"/>
<text text-anchor="middle" x="252.46" y="-96.75" font-family="Times,serif" font-size="14.00">False</text>
</g>
<!-- 6&#45;&gt;3 -->
<g id="edge13" class="edge">
<title>6&#45;&gt;3</title>
<path fill="none" stroke="black" d="M354.54,-127.9C367.19,-113.38 382.04,-96.35 395.36,-81.06"/>
<polygon fill="black" stroke="black" points="398.23,-83.09 402.16,-73.25 392.95,-78.49 398.23,-83.09"/>
<text text-anchor="middle" x="401.46" y="-96.75" font-family="Times,serif" font-size="14.00">True</text>
</g>
</g>
</svg>
