<?xml version="1.0" encoding="UTF-8" standalone="no"?>
<!DOCTYPE svg PUBLIC "-//W3C//DTD SVG 1.1//EN"
 "http://www.w3.org/Graphics/SVG/1.1/DTD/svg11.dtd">
<!-- Generated by graphviz version 2.42.3 (0)
 -->
<!-- Title: G Pages: 1 -->
<svg width="638pt" height="501pt"
 viewBox="0.00 0.00 638.09 501.41" xmlns="http://www.w3.org/2000/svg" xmlns:xlink="http://www.w3.org/1999/xlink">
<g id="graph0" class="graph" transform="scale(1 1) rotate(0) translate(4 497.41)">
<title>G</title>
<polygon fill="white" stroke="transparent" points="-4,4 -4,-497.41 634.09,-497.41 634.09,4 -4,4"/>
<!-- 0 -->
<g id="node1" class="node">
<title>0</title>
<ellipse fill="black" stroke="black" cx="195.63" cy="-491.61" rx="1.8" ry="1.8"/>
</g>
<!-- 2 -->
<g id="node2" class="node">
<title>2</title>
<ellipse fill="none" stroke="black" cx="195.63" cy="-415.34" rx="95.42" ry="37.45"/>
<text text-anchor="middle" x="195.63" y="-426.64" font-family="Times,serif" font-size="14.00">(ref=&#45;7, time=3)</text>
<text text-anchor="middle" x="195.63" y="-411.64" font-family="Times,serif" font-size="14.00">&#45;&#45;&#45;</text>
<text text-anchor="middle" x="195.63" y="-396.64" font-family="Times,serif" font-size="14.00">None</text>
</g>
<!-- 0&#45;&gt;2 -->
<g id="edge1" class="edge">
<title>0&#45;&gt;2</title>
<path fill="none" stroke="black" d="M195.63,-489.78C195.63,-486.74 195.63,-475.75 195.63,-463.16"/>
<polygon fill="black" stroke="black" points="199.13,-462.85 195.63,-452.85 192.13,-462.85 199.13,-462.85"/>
</g>
<!-- 4 -->
<g id="node6" class="node">
<title>4</title>
<ellipse fill="none" stroke="black" cx="92.63" cy="-289.38" rx="92.76" ry="37.45"/>
<text text-anchor="middle" x="92.63" y="-300.68" font-family="Times,serif" font-size="14.00">(ref=1, time=2)</text>
<text text-anchor="middle" x="92.63" y="-285.68" font-family="Times,serif" font-size="14.00">&#45;&#45;&#45;</text>
<text text-anchor="middle" x="92.63" y="-270.68" font-family="Times,serif" font-size="14.00">False</text>
</g>
<!-- 2&#45;&gt;4 -->
<g id="edge4" class="edge">
<title>2&#45;&gt;4</title>
<path fill="none" stroke="black" d="M166.67,-379.48C154.71,-365.09 140.73,-348.27 128.16,-333.14"/>
<polygon fill="black" stroke="black" points="130.82,-330.86 121.74,-325.41 125.43,-335.34 130.82,-330.86"/>
<text text-anchor="middle" x="168.13" y="-348.66" font-family="Times,serif" font-size="14.00">False</text>
</g>
<!-- 6 -->
<g id="node7" class="node">
<title>6</title>
<ellipse fill="none" stroke="black" cx="298.63" cy="-289.38" rx="95.42" ry="37.45"/>
<text text-anchor="middle" x="298.63" y="-300.68" font-family="Times,serif" font-size="14.00">(ref=&#45;6, time=2)</text>
<text text-anchor="middle" x="298.63" y="-285.68" font-family="Times,serif" font-size="14.00">&#45;&#45;&#45;</text>
<text text-anchor="middle" x="298.63" y="-270.68" font-family="Times,serif" font-size="14.00">None</text>
</g>
<!-- 2&#45;&gt;6 -->
<g id="edge5" class="edge">
<title>2&#45;&gt;6</title>
<path fill="none" stroke="black" d="M224.6,-379.48C236.55,-365.09 250.53,-348.27 263.1,-333.14"/>
<polygon fill="black" stroke="black" points="265.83,-335.34 269.53,-325.41 260.44,-330.86 265.83,-335.34"/>
<text text-anchor="middle" x="269.63" y="-348.66" font-family="Times,serif" font-size="14.00">True</text>
</g>
<!-- 1 -->
<g id="node3" class="node">
<title>1</title>
<ellipse fill="none" stroke="black" cx="320.63" cy="-163.43" rx="95.42" ry="37.45"/>
<text text-anchor="middle" x="320.63" y="-174.73" font-family="Times,serif" font-size="14.00">(ref=&#45;4, time=1)</text>
<text text-anchor="middle" x="320.63" y="-159.73" font-family="Times,serif" font-size="14.00">&#45;&#45;&#45;</text>
<text text-anchor="middle" x="320.63" y="-144.73" font-family="Times,serif" font-size="14.00">None</text>
</g>
<!-- 3 -->
<g id="node4" class="node">
<title>3</title>
<ellipse fill="none" stroke="black" cx="114.63" cy="-37.48" rx="92.76" ry="37.45"/>
<text text-anchor="middle" x="114.63" y="-48.78" font-family="Times,serif" font-size="14.00">(ref=1, time=0)</text>
<text text-anchor="middle" x="114.63" y="-33.78" font-family="Times,serif" font-size="14.00">&#45;&#45;&#45;</text>
<text text-anchor="middle" x="114.63" y="-18.78" font-family="Times,serif" font-size="14.00">False</text>
</g>
<!-- 1&#45;&gt;3 -->
<g id="edge2" class="edge">
<title>1&#45;&gt;3</title>
<path fill="none" stroke="black" d="M269.44,-131.63C240.49,-114.21 204.14,-92.34 173.95,-74.17"/>
<polygon fill="black" stroke="black" points="175.57,-71.06 165.2,-68.9 171.96,-77.06 175.57,-71.06"/>
<text text-anchor="middle" x="248.13" y="-96.75" font-family="Times,serif" font-size="14.00">False</text>
</g>
<!-- 7 -->
<g id="node5" class="node">
<title>7</title>
<ellipse fill="none" stroke="black" cx="427.63" cy="-37.48" rx="95.42" ry="37.45"/>
<text text-anchor="middle" x="427.63" y="-48.78" font-family="Times,serif" font-size="14.00">(ref=&#45;1, time=0)</text>
<text text-anchor="middle" x="427.63" y="-33.78" font-family="Times,serif" font-size="14.00">&#45;&#45;&#45;</text>
<text text-anchor="middle" x="427.63" y="-18.78" font-family="Times,serif" font-size="14.00">True</text>
</g>
<!-- 1&#45;&gt;7 -->
<g id="edge3" class="edge">
<title>1&#45;&gt;7</title>
<path fill="none" stroke="black" d="M350.72,-127.57C363.25,-113.06 377.91,-96.08 391.05,-80.85"/>
<polygon fill="black" stroke="black" points="393.88,-82.93 397.77,-73.07 388.58,-78.36 393.88,-82.93"/>
<text text-anchor="middle" x="396.63" y="-96.75" font-family="Times,serif" font-size="14.00">True</text>
</g>
<!-- 3&#45;&gt;3 -->
<g id="edge6" class="edge">
<title>3&#45;&gt;3</title>
<path fill="none" stroke="black" d="M206.62,-42.51C217.88,-41.61 225.26,-39.93 225.26,-37.48 225.26,-35.87 222.08,-34.59 216.71,-33.65"/>
<polygon fill="black" stroke="black" points="216.96,-30.16 206.62,-32.45 216.13,-37.11 216.96,-30.16"/>
<text text-anchor="middle" x="243.76" y="-33.78" font-family="Times,serif" font-size="14.00">False</text>
</g>
<!-- 3&#45;&gt;3 -->
<g id="edge7" class="edge">
<title>3&#45;&gt;3</title>
<path fill="none" stroke="black" d="M203.04,-49.1C235.25,-49.22 262.26,-45.35 262.26,-37.48 262.26,-30.47 240.83,-26.63 213.4,-25.96"/>
<polygon fill="black" stroke="black" points="213.08,-22.45 203.04,-25.85 213.01,-29.45 213.08,-22.45"/>
<text text-anchor="middle" x="279.26" y="-33.78" font-family="Times,serif" font-size="14.00">True</text>
</g>
<!-- 7&#45;&gt;7 -->
<g id="edge14" class="edge">
<title>7&#45;&gt;7</title>
<path fill="none" stroke="black" d="M522.39,-42.47C533.7,-41.56 541.09,-39.9 541.09,-37.48 541.09,-35.89 537.91,-34.62 532.53,-33.69"/>
<polygon fill="black" stroke="black" points="532.74,-30.19 522.39,-32.48 531.91,-37.14 532.74,-30.19"/>
<text text-anchor="middle" x="559.59" y="-33.78" font-family="Times,serif" font-size="14.00">False</text>
</g>
<!-- 7&#45;&gt;7 -->
<g id="edge15" class="edge">
<title>7&#45;&gt;7</title>
<path fill="none" stroke="black" d="M518.54,-49.1C551.01,-49.16 578.09,-45.29 578.09,-37.48 578.09,-30.49 556.42,-26.65 528.61,-25.96"/>
<polygon fill="black" stroke="black" points="528.58,-22.46 518.54,-25.85 528.5,-29.46 528.58,-22.46"/>
<text text-anchor="middle" x="595.09" y="-33.78" font-family="Times,serif" font-size="14.00">True</text>
</g>
<!-- 5 -->
<g id="node8" class="node">
<title>5</title>
<ellipse fill="none" stroke="black" cx="114.63" cy="-163.43" rx="92.76" ry="37.45"/>
<text text-anchor="middle" x="114.63" y="-174.73" font-family="Times,serif" font-size="14.00">(ref=1, time=1)</text>
<text text-anchor="middle" x="114.63" y="-159.73" font-family="Times,serif" font-size="14.00">&#45;&#45;&#45;</text>
<text text-anchor="middle" x="114.63" y="-144.73" font-family="Times,serif" font-size="14.00">False</text>
</g>
<!-- 4&#45;&gt;5 -->
<g id="edge8" class="edge">
<title>4&#45;&gt;5</title>
<path fill="none" stroke="black" d="M66.74,-253.15C61.72,-242.21 59.21,-230.09 63.63,-218.91 65.41,-214.4 67.76,-210.05 70.47,-205.9"/>
<polygon fill="black" stroke="black" points="73.4,-207.82 76.49,-197.69 67.76,-203.69 73.4,-207.82"/>
<text text-anchor="middle" x="82.13" y="-222.71" font-family="Times,serif" font-size="14.00">False</text>
</g>
<!-- 4&#45;&gt;5 -->
<g id="edge9" class="edge">
<title>4&#45;&gt;5</title>
<path fill="none" stroke="black" d="M99.11,-251.86C101.38,-239.12 103.95,-224.63 106.34,-211.17"/>
<polygon fill="black" stroke="black" points="109.82,-211.57 108.12,-201.12 102.93,-210.35 109.82,-211.57"/>
<text text-anchor="middle" x="122.63" y="-222.71" font-family="Times,serif" font-size="14.00">True</text>
</g>
<!-- 6&#45;&gt;1 -->
<g id="edge13" class="edge">
<title>6&#45;&gt;1</title>
<path fill="none" stroke="black" d="M305.11,-251.86C307.38,-239.12 309.95,-224.63 312.34,-211.17"/>
<polygon fill="black" stroke="black" points="315.82,-211.57 314.12,-201.12 308.93,-210.35 315.82,-211.57"/>
<text text-anchor="middle" x="327.63" y="-222.71" font-family="Times,serif" font-size="14.00">True</text>
</g>
<!-- 6&#45;&gt;5 -->
<g id="edge12" class="edge">
<title>6&#45;&gt;5</title>
<path fill="none" stroke="black" d="M251.25,-256.46C226.47,-239.77 195.99,-219.24 170.12,-201.81"/>
<polygon fill="black" stroke="black" points="171.79,-198.71 161.54,-196.03 167.87,-204.52 171.79,-198.71"/>
<text text-anchor="middle" x="236.13" y="-222.71" font-family="Times,serif" font-size="14.00">False</text>
</g>
<!-- 5&#45;&gt;3 -->
<g id="edge10" class="edge">
<title>5&#45;&gt;3</title>
<path fill="none" stroke="black" d="M92.54,-126.8C89.69,-120.71 87.21,-114.29 85.63,-107.95 83.61,-99.84 84.4,-91.44 86.74,-83.41"/>
<polygon fill="black" stroke="black" points="90.1,-84.43 90.27,-73.83 83.53,-82.01 90.1,-84.43"/>
<text text-anchor="middle" x="104.13" y="-96.75" font-family="Times,serif" font-size="14.00">False</text>
</g>
<!-- 5&#45;&gt;3 -->
<g id="edge11" class="edge">
<title>5&#45;&gt;3</title>
<path fill="none" stroke="black" d="M120.75,-125.88C121.53,-119.91 122.21,-113.77 122.63,-107.95 123.17,-100.63 123,-92.88 122.44,-85.33"/>
<polygon fill="black" stroke="black" points="125.9,-84.81 121.45,-75.2 118.94,-85.49 125.9,-84.81"/>
<text text-anchor="middle" x="139.63" y="-96.75" font-family="Times,serif" font-size="14.00">True</text>
</g>
</g>
</svg>
